# xmcd
#
# Track frame offsets:
# 150
# 44537
# 72662
# 96687
# 111037
# 144987
# 178550
# 210295
#
# Disc length: 2944 seconds
#
# Revision: 0
# Processed by: cddbd v1.4PL0 Copyright (c) Steve Scherf et al.
# Submitted via: Audion 3.0.2 (http://www.panic.com/audion/)
#
DISCID=750b7e08
DTITLE=Booker Ervin - Down in the Dumps
DYEAR=1900
DGENRE=
TTITLE0=Down in the Dumps
TTITLE1=Well Well
TTITLE2=Mister Wiggles
TTITLE3=When you're smilin'
TTITLE4=Dee Da Do
TTITLE5=You don't know what love is
TTITLE6=Autumn Leaves
TTITLE7=The Trolley Song
EXTD=
EXTT0=
EXTT1=
EXTT2=
EXTT3=
EXTT4=
EXTT5=
EXTT6=
EXTT7=
PLAYORDER=
